<svg id="visual" viewBox="0 0 900 600" width="900" height="600" xmlns="http://www.w3.org/2000/svg" xmlns:xlink="http://www.w3.org/1999/xlink" version="1.1"><rect x="0" y="0" width="900" height="600" fill="#000020"></rect><defs><linearGradient id="grad1_0" x1="33.3%" y1="0%" x2="100%" y2="100%"><stop offset="20%" stop-color="#0c0c2a" stop-opacity="1"></stop><stop offset="80%" stop-color="#0c0c2a" stop-opacity="1"></stop></linearGradient></defs><defs><linearGradient id="grad1_1" x1="33.3%" y1="0%" x2="100%" y2="100%"><stop offset="20%" stop-color="#0c0c2a" stop-opacity="1"></stop><stop offset="80%" stop-color="#000020" stop-opacity="1"></stop></linearGradient></defs><defs><linearGradient id="grad2_0" x1="0%" y1="0%" x2="66.7%" y2="100%"><stop offset="20%" stop-color="#0c0c2a" stop-opacity="1"></stop><stop offset="80%" stop-color="#0c0c2a" stop-opacity="1"></stop></linearGradient></defs><defs><linearGradient id="grad2_1" x1="0%" y1="0%" x2="66.7%" y2="100%"><stop offset="20%" stop-color="#000020" stop-opacity="1"></stop><stop offset="80%" stop-color="#0c0c2a" stop-opacity="1"></stop></linearGradient></defs><g transform="translate(900, 0)"><path d="M0 513.8C-23.8 386.9 -47.6 259.9 -134.5 233C-221.4 206 -371.2 279.1 -445 256.9C-518.7 234.7 -516.2 117.4 -513.8 0L0 0Z" fill="#060625"></path><path d="M0 256.9C-11.9 193.4 -23.8 130 -67.2 116.5C-110.7 103 -185.6 139.5 -222.5 128.4C-259.3 117.4 -258.1 58.7 -256.9 0L0 0Z" fill="#0c0c2a"></path></g><g transform="translate(0, 600)"><path d="M0 -513.8C21.7 -383.2 43.4 -252.5 130.5 -226C217.6 -199.5 370.2 -277.2 445 -256.9C519.7 -236.6 516.8 -118.3 513.8 0L0 0Z" fill="#060625"></path><path d="M0 -256.9C10.8 -191.6 21.7 -126.3 65.2 -113C108.8 -99.8 185.1 -138.6 222.5 -128.4C259.9 -118.3 258.4 -59.1 256.9 0L0 0Z" fill="#0c0c2a"></path></g></svg>